<?xml version="1.0" encoding="UTF-8"?>
<svg width="134px" height="104px" viewBox="0 0 134 104" version="1.1" xmlns="http://www.w3.org/2000/svg" xmlns:xlink="http://www.w3.org/1999/xlink">
    <!-- Generator: Sketch 64 (93537) - https://sketch.com -->
    <title>Group 6</title>
    <desc>Created with Sketch.</desc>
    <g id="Onboarding" stroke="none" stroke-width="1" fill="none" fill-rule="evenodd">
        <g id="Page-1" transform="translate(-779.000000, -269.000000)" fill="#FFFFFF">
            <g id="Group-6" transform="translate(779.000000, 269.000000)">
                <path d="M112.5572,24.0786 C114.79944,25.75748 117.4572,26.73636 120.39944,26.73636 C127.67832,26.73636 133.5572,20.85748 133.5572,13.5786 C133.5572,6.29972 127.67832,0.42084 120.39944,0.42084 C113.12056,0.42084 107.24168,6.29972 107.24168,13.5786 C107.24168,14.9786 107.520588,16.23636 107.94168,17.49972 L92.82028,28.2786 C90.57804,26.59972 87.92028,25.62084 84.97804,25.62084 C82.0358,25.62084 79.37804,26.599748 77.1358,28.2786 L62.0144,17.49972 C62.435492,16.241904 62.7144,14.9786 62.7144,13.5786 C62.7144,6.29972 56.83552,0.42084 49.55664,0.42084 C42.27776,0.42084 36.39888,6.29972 36.39888,13.5786 C36.39888,14.9786 36.677788,16.23636 37.09888,17.49972 L21.97748,28.2786 C19.5986,26.59972 16.7986,25.4786 13.85636,25.4786 C6.5774842,25.4786 0.6986028,31.35748 0.6986028,38.63636 C0.6986028,45.91524 6.5774842,51.79412 13.85636,51.79412 C21.13524,51.79412 27.01412,45.91524 27.01412,38.63636 C27.01412,37.23636 26.735212,35.9786 26.31412,34.71524 L41.43552,23.93636 C43.67776,25.61524 46.33552,26.59412 49.27776,26.59412 C52.22,26.59412 54.87776,25.615212 57.12,23.93636 L72.2414,34.71524 C71.820308,35.973056 71.5414,37.23636 71.5414,38.63636 C71.5414,45.91524 77.42028,51.79412 84.69916,51.79412 C91.97804,51.79412 97.85692,45.91524 97.85692,38.63636 C97.85692,37.23636 97.578012,35.9786 97.15692,34.71524 L112.5572,24.0786 Z M120.54154,8.4 C123.34154,8.4 125.58378,10.64224 125.58378,13.44224 C125.58378,16.24224 123.34154,18.48448 120.54154,18.48448 C117.74154,18.48448 115.4993,16.24224 115.4993,13.44224 C115.4993,10.64224 117.74154,8.4 120.54154,8.4 Z M13.85734,43.8214 C11.05734,43.8214 8.8151,41.57916 8.8151,38.77916 C8.8151,35.97916 11.05734,33.73692 13.85734,33.73692 C16.65734,33.73692 18.89958,35.97916 18.89958,38.77916 C19.041764,41.57916 16.65734,43.8214 13.85734,43.8214 Z M49.42014,18.6214 C46.62014,18.6214 44.3779,16.37916 44.3779,13.57916 C44.3779,10.77916 46.62014,8.53692 49.42014,8.53692 C52.22014,8.53692 54.46238,10.77916 54.46238,13.57916 C54.456906,16.37916 52.22014,18.6214 49.42014,18.6214 Z M84.97734,43.8214 C82.17734,43.8214 79.9351,41.57916 79.9351,38.77916 C79.9351,35.97916 82.17734,33.73692 84.97734,33.73692 C87.77734,33.73692 90.01958,35.97916 90.01958,38.77916 C90.01958,41.57916 87.77734,43.8214 84.97734,43.8214 Z" id="Fill-1"></path>
                <path d="M22.1214,63.4214 L5.7428,63.4214 C3.50056,63.4214 1.68504,65.24252 1.68504,67.47916 L1.68504,99.25776 C1.68504,101.5 3.50616,103.31552 5.7428,103.31552 L22.1214,103.31552 C24.36364,103.31552 26.17916,101.4944 26.17916,99.25776 L26.17916,67.47916 C26.17916,65.24238 24.35804,63.4214 22.1214,63.4214 Z" id="Fill-2"></path>
                <path d="M93.1,63.4214 L76.8572,63.4214 C74.61496,63.4214 72.79944,65.24252 72.79944,67.47916 L72.79944,99.25776 C72.79944,101.5 74.62056,103.31552 76.8572,103.31552 L93.2358,103.31552 C95.47804,103.31552 97.29356,101.4944 97.29356,99.25776 L97.299034,67.47916 C97.15685,65.24238 95.341274,63.4214 93.099034,63.4214 L93.1,63.4214 Z" id="Fill-3"></path>
                <path d="M57.5428,38.2214 L41.3,38.2214 C39.05776,38.2214 37.24224,40.04252 37.24224,42.27916 L37.24224,99.25776 C37.24224,101.5 39.06336,103.31552 41.3,103.31552 L57.6786,103.31552 C59.92084,103.31552 61.73636,101.4944 61.73636,99.25776 L61.741834,42.27916 C61.59965,40.04238 59.778614,38.2214 57.541834,38.2214 L57.5428,38.2214 Z" id="Fill-4"></path>
                <path d="M128.6572,38.2214 L112.2786,38.2214 C110.03636,38.2214 108.22084,40.04252 108.22084,42.27916 L108.22084,99.25776 C108.22084,101.5 110.04196,103.31552 112.2786,103.31552 L128.6572,103.31552 C130.89944,103.31552 132.71496,101.4944 132.71496,99.25776 L132.720434,42.27916 C132.720434,40.04238 130.899314,38.2214 128.657214,38.2214 L128.6572,38.2214 Z" id="Fill-5"></path>
            </g>
        </g>
    </g>
</svg>